{
  "accessors": [
    {
      "bufferView": 2,
      "componentType": 5126,
      "count": 65532,
      "max": [
        0.13055357336997986,
        0.09846201539039612,
        0.17349301278591156
      ],
      "min": [
        -0.10868886113166809,
        -0.11771538853645325,
        0.022959262132644653
      ],
      "type": "VEC3"
    },
    {
      "bufferView": 2,
      "byteOffset": 786384,
      "componentType": 5126,
      "count": 65532,
      "max": [
        0.9999896287918091,
        0.9999616742134094,
        0.9999943971633911
      ],
      "min": [
        -0.9999818205833435,
        -0.9999944567680359,
        -0.9999692440032959
      ],
      "type": "VEC3"
    },
    {
      "bufferView": 0,
      "componentType": 5125,
      "count": 352650,
      "type": "SCALAR"
    },
    {
      "bufferView": 2,
      "byteOffset": 1572768,
      "componentType": 5126,
      "count": 65532,
      "max": [
        0.12705664336681366,
        0.10839416086673737,
        0.1693829596042633
      ],
      "min": [
        -0.1286313682794571,
        -0.11767567694187164,
        -0.06912939995527267
      ],
      "type": "VEC3"
    },
    {
      "bufferView": 2,
      "byteOffset": 2359152,
      "componentType": 5126,
      "count": 65532,
      "max": [
        0.99979567527771,
        0.999997615814209,
        0.9999974966049194
      ],
      "min": [
        -0.9999868273735046,
        -0.9999996423721313,
        -0.9998621344566345
      ],
      "type": "VEC3"
    },
    {
      "bufferView": 0,
      "byteOffset": 1410600,
      "componentType": 5125,
      "count": 340359,
      "type": "SCALAR"
    },
    {
      "bufferView": 2,
      "byteOffset": 3145536,
      "componentType": 5126,
      "count": 65532,
      "max": [
        0.1422823816537857,
        0.13173632323741913,
        0.11307207494974136
      ],
      "min": [
        -0.14448410272598267,
        -0.11775517463684082,
        -0.07126881927251816
      ],
      "type": "VEC3"
    },
    {
      "bufferView": 2,
      "byteOffset": 3931920,
      "componentType": 5126,
      "count": 65532,
      "max": [
        0.9998667240142822,
        0.9999817609786987,
        0.9998817443847656
      ],
      "min": [
        -0.9999977350234985,
        -0.9999998211860657,
        -0.9999487400054932
      ],
      "type": "VEC3"
    },
    {
      "bufferView": 0,
      "byteOffset": 2772036,
      "componentType": 5125,
      "count": 344592,
      "type": "SCALAR"
    },
    {
      "bufferView": 2,
      "byteOffset": 4718304,
      "componentType": 5126,
      "count": 65532,
      "max": [
        0.14235131442546844,
        0.16287700831890106,
        0.17184169590473175
      ],
      "min": [
        -0.14429500699043274,
        -0.11772455275058746,
        -0.15983636677265167
      ],
      "type": "VEC3"
    },
    {
      "bufferView": 2,
      "byteOffset": 5504688,
      "componentType": 5126,
      "count": 65532,
      "max": [
        0.999967098236084,
        0.9999400973320007,
        0.9999973177909851
      ],
      "min": [
        -0.9999600648880005,
        -0.9999999403953552,
        -0.9993541240692139
      ],
      "type": "VEC3"
    },
    {
      "bufferView": 0,
      "byteOffset": 4150404,
      "componentType": 5125,
      "count": 342234,
      "type": "SCALAR"
    },
    {
      "bufferView": 2,
      "byteOffset": 6291072,
      "componentType": 5126,
      "count": 65532,
      "max": [
        0.14236988127231598,
        0.13388438522815704,
        0.1679714471101761
      ],
      "min": [
        -0.13985569775104523,
        -0.11753588914871216,
        -0.1409255564212799
      ],
      "type": "VEC3"
    },
    {
      "bufferView": 2,
      "byteOffset": 7077456,
      "componentType": 5126,
      "count": 65532,
      "max": [
        0.9999808669090271,
        0.9999989867210388,
        0.9999921917915344
      ],
      "min": [
        -0.9999092221260071,
        -0.9999995231628418,
        -0.999897837638855
      ],
      "type": "VEC3"
    },
    {
      "bufferView": 0,
      "byteOffset": 5519340,
      "componentType": 5125,
      "count": 314772,
      "type": "SCALAR"
    },
    {
      "bufferView": 2,
      "byteOffset": 7863840,
      "componentType": 5126,
      "count": 65532,
      "max": [
        0.14177390933036804,
        0.14405880868434906,
        0.1280711591243744
      ],
      "min": [
        -0.14414545893669128,
        -0.10608330368995667,
        -0.167317196726799
      ],
      "type": "VEC3"
    },
    {
      "bufferView": 2,
      "byteOffset": 8650224,
      "componentType": 5126,
      "count": 65532,
      "max": [
        0.9999854564666748,
        0.9999926686286926,
        0.9997246265411377
      ],
      "min": [
        -0.999984085559845,
        -0.9998356103897095,
        -0.9994985461235046
      ],
      "type": "VEC3"
    },
    {
      "bufferView": 0,
      "byteOffset": 6778428,
      "componentType": 5125,
      "count": 332907,
      "type": "SCALAR"
    },
    {
      "bufferView": 2,
      "byteOffset": 9436608,
      "componentType": 5126,
      "count": 65532,
      "max": [
        0.11027784645557404,
        0.14697377383708954,
        0.1732884794473648
      ],
      "min": [
        -0.12898923456668854,
        -0.10088532418012619,
        -0.1803140491247177
      ],
      "type": "VEC3"
    },
    {
      "bufferView": 2,
      "byteOffset": 10222992,
      "componentType": 5126,
      "count": 65532,
      "max": [
        0.9992451071739197,
        0.999997615814209,
        0.9999940395355225
      ],
      "min": [
        -0.9993283748626709,
        -0.9998737573623657,
        -0.9999816417694092
      ],
      "type": "VEC3"
    },
    {
      "bufferView": 0,
      "byteOffset": 8110056,
      "componentType": 5125,
      "count": 345192,
      "type": "SCALAR"
    },
    {
      "bufferView": 2,
      "byteOffset": 11009376,
      "componentType": 5126,
      "count": 65532,
      "max": [
        0.14169162511825562,
        0.1421586126089096,
        0.17345814406871796
      ],
      "min": [
        -0.14347709715366364,
        -0.09320300817489624,
        -0.1785198301076889
      ],
      "type": "VEC3"
    },
    {
      "bufferView": 2,
      "byteOffset": 11795760,
      "componentType": 5126,
      "count": 65532,
      "max": [
        0.9999469518661499,
        0.9999987483024597,
        0.9997073411941528
      ],
      "min": [
        -0.9999603033065796,
        -0.9999690055847168,
        -0.9999803304672241
      ],
      "type": "VEC3"
    },
    {
      "bufferView": 0,
      "byteOffset": 9490824,
      "componentType": 5125,
      "count": 330627,
      "type": "SCALAR"
    },
    {
      "bufferView": 2,
      "byteOffset": 12582144,
      "componentType": 5126,
      "count": 65532,
      "max": [
        0.1423584669828415,
        0.1537484973669052,
        0.17302271723747253
      ],
      "min": [
        -0.14441083371639252,
        -0.04343891888856888,
        -0.1803140491247177
      ],
      "type": "VEC3"
    },
    {
      "bufferView": 2,
      "byteOffset": 13368528,
      "componentType": 5126,
      "count": 65532,
      "max": [
        0.9999906420707703,
        0.9966417551040649,
        0.9999973177909851
      ],
      "min": [
        -0.999984085559845,
        -0.9987679123878479,
        -0.9999816417694092
      ],
      "type": "VEC3"
    },
    {
      "bufferView": 0,
      "byteOffset": 10813332,
      "componentType": 5125,
      "count": 301515,
      "type": "SCALAR"
    },
    {
      "bufferView": 2,
      "byteOffset": 14154912,
      "componentType": 5126,
      "count": 65533,
      "max": [
        0.14066103100776672,
        0.1634385734796524,
        0.16036365926265717
      ],
      "min": [
        -0.14020602405071259,
        -0.10680389404296875,
        -0.1739124208688736
      ],
      "type": "VEC3"
    },
    {
      "bufferView": 2,
      "byteOffset": 14941308,
      "componentType": 5126,
      "count": 65533,
      "max": [
        0.999839186668396,
        0.999982476234436,
        0.999904453754425
      ],
      "min": [
        -0.9996345639228821,
        -0.9999945163726807,
        -0.9997113943099976
      ],
      "type": "VEC3"
    },
    {
      "bufferView": 0,
      "byteOffset": 12019392,
      "componentType": 5125,
      "count": 298602,
      "type": "SCALAR"
    },
    {
      "bufferView": 2,
      "byteOffset": 15727704,
      "componentType": 5126,
      "count": 61489,
      "max": [
        0.14210699498653412,
        0.08980907499790192,
        0.1731739640235901
      ],
      "min": [
        -0.14071522653102875,
        -0.1075056791305542,
        -0.16175338625907898
      ],
      "type": "VEC3"
    },
    {
      "bufferView": 2,
      "byteOffset": 16465572,
      "componentType": 5126,
      "count": 61489,
      "max": [
        0.999896764755249,
        0.999997615814209,
        0.9998690485954285
      ],
      "min": [
        -0.9999966621398926,
        -0.9999997019767761,
        -0.9998621344566345
      ],
      "type": "VEC3"
    },
    {
      "bufferView": 0,
      "byteOffset": 13213800,
      "componentType": 5125,
      "count": 246978,
      "type": "SCALAR"
    },
    {
      "bufferView": 2,
      "byteOffset": 17203440,
      "componentType": 5126,
      "count": 65532,
      "max": [
        0.8457406759262085,
        1.0119541883468628,
        0.94305419921875
      ],
      "min": [
        -0.8627564907073975,
        -1.013087272644043,
        -0.42908546328544617
      ],
      "type": "VEC3"
    },
    {
      "bufferView": 2,
      "byteOffset": 17989824,
      "componentType": 5126,
      "count": 65532,
      "max": [
        0.9998718500137329,
        0.9999395608901978,
        0.999994695186615
      ],
      "min": [
        -0.9999655485153198,
        -0.9997638463973999,
        -0.9998327493667603
      ],
      "type": "VEC3"
    },
    {
      "bufferView": 3,
      "componentType": 5126,
      "count": 65532,
      "max": [
        1.0,
        1.0,
        1.0,
        1.0
      ],
      "min": [
        0.0,
        0.0,
        0.0,
        1.0
      ],
      "type": "VEC4"
    },
    {
      "bufferView": 1,
      "componentType": 5126,
      "count": 65532,
      "max": [
        0.30364537239074707,
        0.7041335105895996
      ],
      "min": [
        0.0,
        0.0
      ],
      "type": "VEC2"
    },
    {
      "bufferView": 0,
      "byteOffset": 14201712,
      "componentType": 5125,
      "count": 332862,
      "type": "SCALAR"
    },
    {
      "bufferView": 2,
      "byteOffset": 18776208,
      "componentType": 5126,
      "count": 65532,
      "max": [
        0.8801323771476746,
        1.0086199045181274,
        1.7954249382019043
      ],
      "min": [
        -0.8807774782180786,
        -1.053001880645752,
        -0.4196126163005829
      ],
      "type": "VEC3"
    },
    {
      "bufferView": 2,
      "byteOffset": 19562592,
      "componentType": 5126,
      "count": 65532,
      "max": [
        0.9999380111694336,
        0.9999780058860779,
        0.9998505115509033
      ],
      "min": [
        -0.9999908804893494,
        -0.9999998211860657,
        -0.9979780316352844
      ],
      "type": "VEC3"
    },
    {
      "bufferView": 3,
      "byteOffset": 1048512,
      "componentType": 5126,
      "count": 65532,
      "max": [
        1.0,
        1.0,
        1.0,
        1.0
      ],
      "min": [
        0.0,
        0.0,
        0.0,
        1.0
      ],
      "type": "VEC4"
    },
    {
      "bufferView": 1,
      "byteOffset": 524256,
      "componentType": 5126,
      "count": 65532,
      "max": [
        0.0,
        0.0
      ],
      "min": [
        0.0,
        0.0
      ],
      "type": "VEC2"
    },
    {
      "bufferView": 0,
      "byteOffset": 15533160,
      "componentType": 5125,
      "count": 342231,
      "type": "SCALAR"
    },
    {
      "bufferView": 2,
      "byteOffset": 20348976,
      "componentType": 5126,
      "count": 23404,
      "max": [
        0.8727908134460449,
        1.005239725112915,
        1.7954249382019043
      ],
      "min": [
        -0.8804680109024048,
        -1.0474129915237427,
        -0.4220341145992279
      ],
      "type": "VEC3"
    },
    {
      "bufferView": 2,
      "byteOffset": 20629824,
      "componentType": 5126,
      "count": 23404,
      "max": [
        0.9999804496765137,
        0.9999708533287048,
        0.9998320937156677
      ],
      "min": [
        -0.9999538064002991,
        -0.9997638463973999,
        -0.9994338750839233
      ],
      "type": "VEC3"
    },
    {
      "bufferView": 3,
      "byteOffset": 2097024,
      "componentType": 5126,
      "count": 23404,
      "max": [
        1.0,
        1.0,
        1.0,
        1.0
      ],
      "min": [
        0.0,
        0.0,
        0.0,
        1.0
      ],
      "type": "VEC4"
    },
    {
      "bufferView": 1,
      "byteOffset": 1048512,
      "componentType": 5126,
      "count": 23404,
      "max": [
        0.0,
        0.0
      ],
      "min": [
        0.0,
        0.0
      ],
      "type": "VEC2"
    },
    {
      "bufferView": 0,
      "byteOffset": 16902084,
      "componentType": 5125,
      "count": 50601,
      "type": "SCALAR"
    }
  ],
  "asset": {
    "extras": {
      "author": "glirchX03 (https://sketchfab.com/ekraj.1503)",
      "license": "COPYRIGHT TO glirchX03",
      "source": "https://sketchfab.com/3d-models/skull-girl-94ae7c555d864e26894d66db01643825",
      "title": "skull girl"
    },
    "generator": "Sketchfab-16.0.0",
    "version": "2.0"
  },
  "bufferViews": [
    {
      "buffer": 0,
      "byteLength": 17104488,
      "name": "floatBufferViews",
      "target": 34963
    },
    {
      "buffer": 0,
      "byteLength": 1235744,
      "byteOffset": 17104488,
      "byteStride": 8,
      "name": "floatBufferViews",
      "target": 34962
    },
    {
      "buffer": 0,
      "byteLength": 20910672,
      "byteOffset": 18340232,
      "byteStride": 12,
      "name": "floatBufferViews",
      "target": 34962
    },
    {
      "buffer": 0,
      "byteLength": 2471488,
      "byteOffset": 39250904,
      "byteStride": 16,
      "name": "floatBufferViews",
      "target": 34962
    }
  ],
  "buffers": [
    {
      "byteLength": 41722392,
      "uri": "scene.bin"
    }
  ],
  "materials": [
    {
      "doubleSided": true,
      "name": "Skull",
      "pbrMetallicRoughness": {
        "baseColorFactor": [
          0.8,
          0.8,
          0.8,
          1.0
        ],
        "metallicFactor": 0.0,
        "roughnessFactor": 0.8
      }
    },
    {
      "doubleSided": true,
      "name": "Skin",
      "pbrMetallicRoughness": {
        "baseColorFactor": [
          0.8,
          0.8,
          0.8,
          1.0
        ],
        "metallicFactor": 0.0,
        "roughnessFactor": 0.8
      }
    }
  ],
  "meshes": [
    {
      "name": "Object_0",
      "primitives": [
        {
          "attributes": {
            "NORMAL": 1,
            "POSITION": 0
          },
          "indices": 2,
          "material": 0,
          "mode": 4
        }
      ]
    },
    {
      "name": "Object_1",
      "primitives": [
        {
          "attributes": {
            "NORMAL": 4,
            "POSITION": 3
          },
          "indices": 5,
          "material": 0,
          "mode": 4
        }
      ]
    },
    {
      "name": "Object_2",
      "primitives": [
        {
          "attributes": {
            "NORMAL": 7,
            "POSITION": 6
          },
          "indices": 8,
          "material": 0,
          "mode": 4
        }
      ]
    },
    {
      "name": "Object_3",
      "primitives": [
        {
          "attributes": {
            "NORMAL": 10,
            "POSITION": 9
          },
          "indices": 11,
          "material": 0,
          "mode": 4
        }
      ]
    },
    {
      "name": "Object_4",
      "primitives": [
        {
          "attributes": {
            "NORMAL": 13,
            "POSITION": 12
          },
          "indices": 14,
          "material": 0,
          "mode": 4
        }
      ]
    },
    {
      "name": "Object_5",
      "primitives": [
        {
          "attributes": {
            "NORMAL": 16,
            "POSITION": 15
          },
          "indices": 17,
          "material": 0,
          "mode": 4
        }
      ]
    },
    {
      "name": "Object_6",
      "primitives": [
        {
          "attributes": {
            "NORMAL": 19,
            "POSITION": 18
          },
          "indices": 20,
          "material": 0,
          "mode": 4
        }
      ]
    },
    {
      "name": "Object_7",
      "primitives": [
        {
          "attributes": {
            "NORMAL": 22,
            "POSITION": 21
          },
          "indices": 23,
          "material": 0,
          "mode": 4
        }
      ]
    },
    {
      "name": "Object_8",
      "primitives": [
        {
          "attributes": {
            "NORMAL": 25,
            "POSITION": 24
          },
          "indices": 26,
          "material": 0,
          "mode": 4
        }
      ]
    },
    {
      "name": "Object_9",
      "primitives": [
        {
          "attributes": {
            "NORMAL": 28,
            "POSITION": 27
          },
          "indices": 29,
          "material": 0,
          "mode": 4
        }
      ]
    },
    {
      "name": "Object_10",
      "primitives": [
        {
          "attributes": {
            "NORMAL": 31,
            "POSITION": 30
          },
          "indices": 32,
          "material": 0,
          "mode": 4
        }
      ]
    },
    {
      "name": "Object_11",
      "primitives": [
        {
          "attributes": {
            "COLOR_0": 35,
            "NORMAL": 34,
            "POSITION": 33,
            "TEXCOORD_0": 36
          },
          "indices": 37,
          "material": 1,
          "mode": 4
        }
      ]
    },
    {
      "name": "Object_12",
      "primitives": [
        {
          "attributes": {
            "COLOR_0": 40,
            "NORMAL": 39,
            "POSITION": 38,
            "TEXCOORD_0": 41
          },
          "indices": 42,
          "material": 1,
          "mode": 4
        }
      ]
    },
    {
      "name": "Object_13",
      "primitives": [
        {
          "attributes": {
            "COLOR_0": 45,
            "NORMAL": 44,
            "POSITION": 43,
            "TEXCOORD_0": 46
          },
          "indices": 47,
          "material": 1,
          "mode": 4
        }
      ]
    }
  ],
  "nodes": [
    {
      "children": [
        1
      ],
      "matrix": [
        1.0,
        0.0,
        0.0,
        0.0,
        0.0,
        2.220446049250313e-16,
        -1.0,
        0.0,
        0.0,
        1.0,
        2.220446049250313e-16,
        0.0,
        0.0,
        0.0,
        0.0,
        1.0
      ],
      "name": "Sketchfab_model"
    },
    {
      "children": [
        2
      ],
      "name": "root"
    },
    {
      "children": [
        3,
        15
      ],
      "matrix": [
        1.0,
        0.0,
        0.0,
        0.0,
        0.0,
        2.220446049250313e-16,
        1.0,
        0.0,
        0.0,
        -1.0,
        2.220446049250313e-16,
        0.0,
        0.0,
        0.0,
        0.0,
        1.0
      ],
      "name": "GLTF_SceneRootNode"
    },
    {
      "children": [
        4,
        5,
        6,
        7,
        8,
        9,
        10,
        11,
        12,
        13,
        14
      ],
      "matrix": [
        0.9547996384297328,
        0.22782527309839506,
        -0.19092746107381503,
        0.0,
        -0.27622552112968113,
        0.9173106188101557,
        -0.2867763764586706,
        0.0,
        0.1098048811806084,
        0.3265530179860091,
        0.9387790019558073,
        0.0,
        -0.05309419333934784,
        0.210929274559021,
        -0.010598653927445412,
        1.0
      ],
      "name": "Skull_1"
    },
    {
      "mesh": 0,
      "name": "Object_4"
    },
    {
      "mesh": 1,
      "name": "Object_5"
    },
    {
      "mesh": 2,
      "name": "Object_6"
    },
    {
      "mesh": 3,
      "name": "Object_7"
    },
    {
      "mesh": 4,
      "name": "Object_8"
    },
    {
      "mesh": 5,
      "name": "Object_9"
    },
    {
      "mesh": 6,
      "name": "Object_10"
    },
    {
      "mesh": 7,
      "name": "Object_11"
    },
    {
      "mesh": 8,
      "name": "Object_12"
    },
    {
      "mesh": 9,
      "name": "Object_13"
    },
    {
      "mesh": 10,
      "name": "Object_14"
    },
    {
      "children": [
        16,
        17,
        18
      ],
      "matrix": [
        0.1858023052886041,
        0.015343537949740062,
        -0.04563626780853521,
        0.0,
        0.045924248617037915,
        -0.0018436748921018976,
        0.18635491407183186,
        0.0,
        0.014458785746664617,
        -0.19131588134011307,
        -0.005455896686606913,
        0.0,
        0.0,
        -0.021196886897087097,
        0.028615795075893402,
        1.0
      ],
      "name": "Bottom Half_2"
    },
    {
      "mesh": 11,
      "name": "Object_16"
    },
    {
      "mesh": 12,
      "name": "Object_17"
    },
    {
      "mesh": 13,
      "name": "Object_18"
    }
  ],
  "scene": 0,
  "scenes": [
    {
      "name": "Sketchfab_Scene",
      "nodes": [
        0
      ]
    }
  ]
}
